<?xml version="1.0" encoding="utf-8"?>
<!-- Generator: Adobe Illustrator 28.3.0, SVG Export Plug-In . SVG Version: 6.00 Build 0)  -->
<svg version="1.1" class="PENGUIN_LOGO" xmlns="http://www.w3.org/2000/svg" xmlns:xlink="http://www.w3.org/1999/xlink" x="0px"
	 y="0px" viewBox="0 0 1290.6 531.4" style="enable-background:new 0 0 1290.6 531.4;" xml:space="preserve">
<style type="text/css">
	.st0{fill:#07080A;}
	.st1{fill:#FF6F00;}
	.st2{fill:#FFFFFF;}
</style>
<path d="M188.3,0C7.6,0.3-0.1,225.8,0,267.2c0.2,125.6,51.4,264.5,189.3,264.2c137.9-0.3,188.5-140.2,188.3-265.8
	C377.5,224.2,369.1-0.4,188.3,0"/>
<path class="st0" d="M189.3,523.9c-131,0.3-166.3-139-166.6-258.4C22.7,226.2,16,6.5,187.8,6.2c171.7-0.3,167,220.4,167.1,259.7
	C355.1,385.3,320.3,523.6,189.3,523.9"/>
<path class="st1" d="M189.3,523.9c-131,0.3-166.3-139-166.6-258.4C22.7,226.2,16,6.5,187.8,6.2c171.7-0.3,167,220.4,167.1,259.7
	C355.1,385.3,320.3,523.6,189.3,523.9"/>
<path d="M275.7,205.4c-15.4-24.5-37-53.5-39.4-83.3c-1.5-18.7-0.4-39.6-13-55c-3.7-4.5-8.8-8.6-14-11.3c-5.5-2.9-12.6-4.7-18.8-4.7
	c-5.8,0-11.7,0.9-17.3,2.6c-6.6,2-13.2,4.4-20,5.3c-7.9,1.1-14.4,0.7-22.2-1c-4.6-1-5.9-1.4-10.5-2.4c-2.5-0.5-9.5-2.6-11.7-0.4
	c-5.2,5.2,5.9,11.5,9.2,13.9c7.2,5.3,10.3,7,17.2,13c9.3,8.1,16.8,17.8,19.6,29.9c0.8,3.5,1.1,7,1.1,10.6
	c0.7,52.2-86.4,103.5-85.2,195.9c0.4,32.7,17.9,38.1,17.6,19.9c-0.3-21.5,7.4-44.8,15.3-64.7c1.8-4.6,7.7-6,6.4,2
	c-2.1,12.7-7.2,34.6-6.8,70.3c0.1,8.6,0.6,17.3,1.9,25.8c1,6.9,2.5,13.7,4.5,20.3c1.7,5.6,3.8,11,6.6,16.2c2.2,4.1,4.7,7.9,7.6,11.5
	c2.9,3.5,6.1,6,9.6,8.8c2.1,1.6,4.3,3,5.3,5.6c1.4,3.8-3.4,5.3-5.9,6.4c-2.8,1.3-5.2,2.6-7.8,3.9c-3.8,1.9-7.5,3.8-11.2,5.8
	c-2.3,1.3-4.8,2-7,3.5c-2.1,1.5-3.2,3.8,0.1,4.3c1.5,0.3,3.2-0.1,4.8-0.2c2.6-0.1,5.4-0.5,8,0.5c3.4,1.3,3.2,4.6,3.4,7.8
	c0.2,3.5,2.6,4.6,5.6,3.7c3.6-1,6-3.7,8.8-6c2-1.7,4.2-3.4,6.5-4.6c4.7-2.3,10.3-1.6,15.4-1.3c2.8,0.1,6.8,1.3,9-1
	c2.3-2.3,0.7-6.3-0.4-8.9c-1-2.5-2.2-4.8-3.4-7.2c-0.6-1.1-1.3-2-1.8-3.1c-2-4.6,13.9-8,16.2-8.6c7.7-2.1,15.7-3.9,23.7-4.6
	c7.5-0.7,15.9-0.7,23,2.3c3,1.3,5.5,3.4,7.5,6c1.2,1.4,3.8,5.7,1.4,7.4c-3.6,2.6-7.4,5-11,7.8c-2.2,1.8-4.4,3.6-6.3,5.8
	c-1.4,1.6-1.8,4.5,1.1,4.3c3.8-0.2,7.7-0.4,11.5-0.4c2.7,0,5.7,0.4,8,1.9c3.8,2.6,4.6,8.1,8.8,10.1c1.2,0.6,2.6,0.6,3.9,0.2
	c2.8-0.8,4.1-3.8,5.6-6c1.4-2.1,2.8-4,5-5.3c1.4-0.8,3-1.1,4.5-1.1c2.8,0,5.7,0.1,8.5,0.4c2.2,0.3,5.3,1.3,7.2-0.2
	c3.7-2.9-6.1-9.3-8-10.5c-4.5-2.8-10.9-5.7-12.3-11.5c-1.6-6.7,1.7-13.7,4.5-19.7c3-6.3,7-12.1,9.3-18.7c2.1-6.1,3.8-12.4,4.7-18.7
	c4.9-35-3.2-72.2-13.4-105.6c-1.2-4-2.8-7.9-4-12c-1.8-6.3,4.3-7.8,7.5-1.6c3,5.9,22.6,43.5,28.3,71.5c3.6,17.8,17.1,18.5,16.7-13.1
	C314.2,272.3,296.9,239.1,275.7,205.4"/>
<path class="st2" d="M259.5,343.4c2.4,23.1,4.9,62.9-23.2,64.2c-7.5,0.4-16.7-4.9-30.6-3.9c-23.5,1.6-30.4,10.6-49.6,7.1
	c-11-2-19.1-8.1-23.7-18.8c-5.2-12.1-5.7-25.8-6.5-38.8c-0.9-14.5-0.9-29.1,0-43.6c0.6-10.5,1.8-21,3.1-31.4
	c2.3-17.3,6-34.4,9.9-51.4c3.5-15,7.1-30,13.6-44c4.7-10.3,11.8-20.2,22.2-25.4c11.4-5.7,27.3-6.1,38.6-0.4
	c25.3,13,24.7,43.2,25.5,67.9c0.6,18.9,3,38.4,6.4,57C249,302.7,257.4,322.4,259.5,343.4"/>
<path class="st2" d="M218.5,89.7c5.2,6.1,4.9,31.2-3.6,39.9c-5,5.1-13.4,5.7-20,6.7c-7.4,1-14.5,2.7-21.8,4.4
	c-6.9,1.7-6.4-5.6,0.2-10.8c9.9-7.8,34.8-11.3,40.8-40.2C214.3,88.6,215.6,86.2,218.5,89.7"/>
<path class="st2" d="M182.4,96.3c7,4.5,16.9,1.6,22.2-6.5c5.2-8.1,3.9-18.4-3.1-22.9c-7-4.5-16.9-1.6-22.2,6.5
	C174.1,81.5,175.5,91.7,182.4,96.3"/>
<path d="M189,80.5c2.6-3.8,7.2-5.2,10.2-3.1c3,2.1,3.4,6.9,0.8,10.6c-2.6,3.8-7.2,5.2-10.2,3.1C186.8,89.1,186.4,84.3,189,80.5"/>
<path d="M761.3,166.2c19,0,30-8.9,34.4-22.3l-5.4-1.9c-4.9,11.2-13.7,17.3-27.9,17.3c-22,0-34.9-15.2-34.9-38.9v-1.7h69.2
	c0.2-1.2,0.2-4,0.2-5.6c0-19.2-12-38.9-37.2-38.9s-40.8,18.8-40.8,46S735.3,166.2,761.3,166.2L761.3,166.2z M759.5,81.1
	c14.1,0,28.4,9.3,29,30.7h-60.5C730.6,93.2,742.4,81.1,759.5,81.1L759.5,81.1z M1146.1,56.5c4.2,0,7.7-3.3,7.7-7.5s-3.5-7.5-7.7-7.5
	c-4.2,0-7.5,3.3-7.5,7.5S1141.9,56.5,1146.1,56.5z M736.8,307.4c0,13.1,10.1,21.8,26,21.8c14.3,0,25.9-7.1,33-14.1
	c1.5,7.6,7,11.5,14.5,11.5c8.2,0,13.6-4.4,15.3-13.4l-4-1.7c-1.4,5.4-4,8.4-8.7,8.4c-6.1,0-8.9-3.1-8.9-14.3v-37.8
	c0-17.4-7.1-30.4-30.4-30.4c-13.6,0-21.5,4-26.9,8.9c-4.7,4.4-6.1,8.4-6.1,10.8c0,3,2.1,5.1,5.2,5.1c4.2,0,4.7-4,7.1-8.5
	c3-5.2,7.5-9.3,19.9-9.3c14,0,22.3,7.5,22.3,22.5v9.8C758,276.8,736.9,287.5,736.8,307.4L736.8,307.4z M795.3,308.1
	c-6.1,6.8-18.1,14.1-31.1,14.1c-10.3,0-18.8-4.9-18.8-14.8c0-12.4,10.6-23.9,49.9-24.6L795.3,308.1L795.3,308.1z M919.3,179
	c0,13.4,12.7,24.6,38.6,24.6s41.2-11.3,41.2-26.3c0-16.6-19.4-21-38.4-22.5c-14.1-1.2-27.2-1.7-27.2-8.7c0-3.5,3.5-6.8,19-6.8h5.8
	c20.9,0,34.4-14.3,34.4-32.8c0-8.4-3.1-16.2-8.5-22c1.2-15.9,15.2-8,15.2-16.2c0-3.5-2.1-5.2-5.6-5.2c-8,0-14.1,8-15.2,16.7
	c-5.2-3.5-11.7-5.6-19.2-5.6c-21.3,0-35.1,14.3-35.1,32.3c0,13.1,6.6,23,16.2,28.3c-9.4,0.9-14.5,5.8-14.5,12.4
	c0,4.7,3,9.2,10.8,11.9C926.6,161.6,919.3,169.7,919.3,179L919.3,179z M932.2,106.8c0-14.1,10.6-25.8,26.5-25.8s25.8,11.7,25.8,26.2
	c0,13.6-9.9,25.5-26.3,25.5C943.4,132.6,932.2,120.9,932.2,106.8L932.2,106.8z M946.5,161l17.4,1.6c20.4,1.8,26.7,7.7,26.7,15.3
	c0,10.6-10.8,18.8-32.6,18.8c-19.5,0-30.7-7.9-30.7-18.3C927.3,170.6,934,163.1,946.5,161L946.5,161z M981.6,237.2
	c-24.4,0-40.8,19-40.8,46.6s14.5,45.4,38.7,45.4c13.3,0,24.5-6.2,30.2-16.7l0.2,15l0.5,0.3l27.6-2.6v-4.7h-19.7V194.8l-4.7-1.4
	c-7.6,9.8-16.9,15-27.7,14.8v3.8c8.3,1.8,18,0,23.7-4v42.5C1003.2,242.1,993.4,237.2,981.6,237.2L981.6,237.2z M1009.5,302.7
	c-4.4,12.4-15.2,19.5-28.6,19.5c-19.7,0-31.4-15-31.4-38.7c0-23.7,13.1-39.2,33.1-39.2c11.7,0,21.8,5.9,26.9,15.7V302.7z M826,86.9
	v69.1l-20.8,1.7v5.1h49.4v-4.9l-19.9-1.7v-53.4c7.1-12,19.7-21.1,33.5-21.1s21.5,9.1,21.5,23v51.5l-20.2,1.7v4.9H917v-5.1l-18.7-1.7
	v-52.2c0-15.9-7.7-29.7-28.4-29.7c-14.8,0-27.8,8.3-35.4,19.9V75.2l-4.9-1.4c-7.1,7.9-16.6,11.5-27.9,11.3V89
	C810.1,90.5,819,90.4,826,86.9L826,86.9z M1021,87.4v49.2c0,15.7,7.5,29.7,28.6,29.7c14.8,0,27.6-8.3,35.1-19.4l0.2,17.6l0.5,0.3
	l27.2-2.6v-4.7h-19.2V75.2l-4.9-1.4c-7.5,7.9-17.1,11.5-28.1,11.3V89c8.2,1.6,17.1,1.4,24.1-2.1v51.8c-7.3,11.5-19.9,20.2-33.5,20.2
	c-13.6,0-21.3-9.1-21.3-22.9V75.2l-4.7-1.4c-7.3,7.9-14.8,11.5-25.6,11.3V89C1006.7,90.5,1014.7,90.4,1021,87.4L1021,87.4z
	 M922.8,401.2l-4.9-1.4c-7.5,7.9-17.1,11.5-28.1,11.3v3.8c8.2,1.6,17.1,1.4,24.1-2.1v51.8c-7.3,11.5-19.9,20.2-33.5,20.2
	c-13.6,0-21.3-9.1-21.3-22.9v-60.9l-4.7-1.4c-7.3,7.9-14.8,11.5-25.6,11.3v3.8c7.3,1.6,15.3,1.4,21.6-1.6v49.2
	c0,15.7,7.5,29.7,28.6,29.7c14.8,0,27.6-8.3,35.1-19.4l0.2,17.6l0.5,0.3l27.2-2.6v-4.7h-19.2L922.8,401.2L922.8,401.2z
	 M1079.1,237.2c-25.6,0-42.2,18.5-42.2,45.9c0,27.4,16.6,46,42,46s42.4-18.8,42.4-46S1104.6,237.2,1079.1,237.2z M1079.1,322.2
	c-20.4,0-33.5-15.7-33.5-39.1c0-23.4,13.1-38.9,33.5-38.9c20.4,0,33.7,15.5,33.7,38.9C1112.8,306.5,1099.7,322.2,1079.1,322.2z
	 M1072.8,400.2c-24.6,0-40.8,18.8-40.8,46c0,27.2,16.4,46,42.4,46c19,0,30-8.9,34.4-22.3l-5.4-1.9c-4.9,11.2-13.7,17.3-27.9,17.3
	c-22,0-34.9-15.2-34.9-38.9v-1.7h69.2c0.2-1.2,0.2-4,0.2-5.6C1109.9,419.9,1097.9,400.2,1072.8,400.2L1072.8,400.2z M1041.1,437.8
	c2.6-18.7,14.5-30.7,31.6-30.7c14.1,0,28.4,9.2,29,30.7H1041.1L1041.1,437.8z M1121.3,157.7v5.1h49.7v-5.1l-20.2-1.7V75.4l-4.9-1.6
	c-7.5,7.9-17.1,11.5-28.1,11.3V89c8.2,1.6,17.3,1.2,24.2-2.3v69.2L1121.3,157.7L1121.3,157.7z M1271.5,266
	c0-15.9-6.6-28.8-25.1-28.8c-14.1,0-25.2,7.5-32.6,19c-2.4-10.6-9.4-19-23.9-19c-12.7,0-24.7,8.2-31.9,19.2v-18.1l-4.9-1.4
	c-7.3,7.9-16.7,11.3-27.9,11.3v3.7c8.2,1.6,17.3,1.2,24.3-2.3v69.2l-20.8,1.7v5.1h45.5v-4.9l-16-1.7v-54.2
	c6.6-11.5,17.6-20.1,29.7-20.1c14,0,18.5,9.4,18.5,23.7V319l-17.1,1.7v4.9h43.1v-4.9L1215,319v-51.6c0-1.1,0-2.3-0.2-3.5
	c7.3-12.4,17.4-19.2,29.3-19.2c14.1,0,18.7,9.6,18.7,23.5V319l-15.9,1.7v4.9h43.6v-4.9l-19-1.9L1271.5,266L1271.5,266z M985.1,441.5
	c-11.3-2.8-25.6-6.6-25.6-19c0-8.2,5.9-15.5,20.9-15.5c13.4,0,20.4,5.9,26.7,16.9l5.6,9.8l4.4-0.9l-5.6-33h-4.7l-0.2,14.5
	c-4.9-7.9-13.6-14.1-27.4-14.1c-17.4,0-27.9,9.8-27.9,22.5c0,17.6,20.1,23,32.1,26.2c16.4,4.2,27.6,8.2,27.6,20.1
	c0,10.5-8.9,16.7-22.3,16.7c-13.4,0-22.7-7-31.2-20.9l-5.4-8.9l-4.5,0.9l5.8,34h4.9l-0.5-16.4c6.6,11,16.7,18,32.1,18
	c17.8,0,29.5-9.4,29.5-24.1C1019.1,451.3,1004.2,446.4,985.1,441.5L985.1,441.5z M1271.8,155.9v-52.2c0-15.9-7.7-29.7-28.4-29.7
	c-14.7,0-27.6,8.3-35.2,19.9V75.2l-4.9-1.4c-7.1,7.9-16.6,11.5-27.9,11.3V89c8.4,1.6,17.3,1.4,24.2-2.1v69.1l-20.8,1.7v5.1h49.4
	v-4.9l-19.9-1.7v-53.4c7.1-12,19.7-21.1,33.3-21.1c13.6,0,21.5,9.1,21.5,23v51.5l-20.2,1.7v4.9h47.6v-5.1L1271.8,155.9L1271.8,155.9
	z M667.8,320.3l-27-1.7v-44.8h35.9l25.5,52h31.9v-5.4l-26-2.6l-21.6-44c20.4-1.1,32.4-15.7,32.4-34.7s-13.6-33.5-34.5-33.5H606v5.4
	l25.5,1.9v105.7l-25.5,1.7v5.4h61.8L667.8,320.3L667.8,320.3z M640.7,212.5h40.6c17.3,0,28.3,10.5,28.3,26.5s-9.2,27.6-27.9,27.6
	h-41L640.7,212.5L640.7,212.5z M827.9,320.6v5.1h49.4v-4.9l-19.9-1.7v-53.4c7.1-12,19.7-20.9,33.5-20.9s21.5,8.9,21.5,22.9v51.5
	l-20.2,1.7v4.9h47.6v-5.1l-18.7-1.7v-52.2c0-15.9-7.7-29.5-28.4-29.5c-14.8,0-27.8,8.3-35.4,19.7v-18.7l-4.9-1.4
	c-7.1,7.9-16.6,11.3-27.9,11.3v3.7c8.4,1.6,17.3,1.4,24.3-2.1v69.1L827.9,320.6L827.9,320.6z M667.8,157.3l-27-1.7v-42.7h41.3
	c21.6,0,34.2-15.3,34.2-35.9S703,42.4,681.2,42.4H606v5.4l25.3,1.9v105.9l-25.3,1.7v5.4h61.8V157.3L667.8,157.3z M640.7,49.4h38.7
	c17.1,0,27.6,11,27.6,27.4s-9.1,29.1-26.2,29.1h-40.1L640.7,49.4L640.7,49.4z M718.2,375.7l25.6-1.9v-5.4h-60.7v5.4l25.8,1.7v47.1
	h-68v-47.1l25.8-1.7v-5.4H606v5.4l25.5,1.9v105.9l-25.5,1.7v5.4h60.7v-5.4l-25.8-1.7v-52h68v52l-25.8,1.7v5.4h60.7v-5.4l-25.6-1.7
	V375.7L718.2,375.7z M785.2,400.2c-25.6,0-42.2,18.7-42.2,46c0,27.4,16.6,46,42,46c25.5,0,42.4-18.8,42.4-46
	C827.4,419,810.6,400.2,785.2,400.2z M785.2,485.3c-20.4,0-33.5-15.7-33.5-39.1c0-23.4,13.1-39.1,33.5-39.1
	c20.4,0,33.7,15.7,33.7,39.1S805.7,485.3,785.2,485.3z"/>
<polygon points="487.9,497.5 494.9,497.5 494.9,266 494.9,34 487.9,34 487.9,265.9 "/>
</svg>
